<svg width="35" height="35" viewBox="0 0 35 35" fill="none" xmlns="http://www.w3.org/2000/svg">
<path fill-rule="evenodd" clip-rule="evenodd" d="M8.0421 23.3333L9.76293 21.6096C10.3142 21.0583 10.6175 20.3263 10.6175 19.5475V12.7269C10.6175 10.7479 11.4779 8.85646 12.98 7.54104C14.4938 6.21396 16.4217 5.63063 18.4298 5.89458C21.8233 6.34521 24.3827 9.41354 24.3827 13.0331V19.5475C24.3827 20.3263 24.6861 21.0583 25.2358 21.6081L26.9581 23.3333H8.0421ZM20.4161 26.7473C20.4161 28.0583 19.0802 29.1667 17.4994 29.1667C15.9186 29.1667 14.5827 28.0583 14.5827 26.7473V26.25H20.4161V26.7473ZM29.9258 22.1783L27.2994 19.5475V13.0331C27.2994 7.95667 23.6506 3.64438 18.8119 3.00417C16.009 2.63083 13.1798 3.48688 11.0579 5.34771C8.92293 7.21729 7.70085 9.90646 7.70085 12.7269L7.69939 19.5475L5.07293 22.1783C4.38897 22.8638 4.18627 23.8831 4.55668 24.7771C4.92856 25.6725 5.79335 26.25 6.76168 26.25H11.6661V26.7473C11.6661 29.6902 14.2823 32.0833 17.4994 32.0833C20.7165 32.0833 23.3327 29.6902 23.3327 26.7473V26.25H28.2371C29.2054 26.25 30.0688 25.6725 30.4392 24.7785C30.8111 23.8831 30.6098 22.8623 29.9258 22.1783Z" fill="#757D8A"/>
</svg>
