<svg width="35" height="35" viewBox="0 0 35 35" fill="none" xmlns="http://www.w3.org/2000/svg">
<path fill-rule="evenodd" clip-rule="evenodd" d="M21.875 26.0136L19.1683 17.8951L27.2883 9.77361L21.875 26.0136ZM25.2262 7.71152L17.1062 15.8315L8.98621 13.1249L25.2262 7.71152ZM32.0687 4.29902C32.0614 4.1634 32.0366 4.03215 31.9914 3.90527C31.9768 3.86007 31.9608 3.81632 31.9404 3.77257C31.8704 3.61652 31.7814 3.46923 31.656 3.34382C31.5306 3.2184 31.3833 3.12944 31.2258 3.05944C31.1835 3.03902 31.1412 3.02298 31.096 3.0084C30.9662 2.96319 30.8335 2.93694 30.695 2.92965C30.6629 2.92819 30.6337 2.9209 30.6002 2.9209C30.4543 2.92382 30.307 2.94423 30.1641 2.9909L3.91413 11.7409C3.31767 11.9407 2.91663 12.4963 2.91663 13.1249C2.91663 13.7534 3.31767 14.3105 3.91413 14.5088L16.3464 18.6534L20.4925 31.0871C20.6908 31.6821 21.2464 32.0832 21.875 32.0832C22.5035 32.0832 23.0591 31.6821 23.2575 31.0871L32.0075 4.83715C32.0541 4.69277 32.076 4.54694 32.0775 4.40111C32.0789 4.36611 32.0702 4.33402 32.0687 4.29902Z" fill="#757D8A"/>
</svg>
