<svg width="19" height="20" viewBox="0 0 19 20" fill="none" xmlns="http://www.w3.org/2000/svg">
<path opacity="0.6" d="M9.16667 19.1663C4.10406 19.1663 0 15.0623 0 9.99967C0 4.93706 4.10406 0.833008 9.16667 0.833008C14.2293 0.833008 18.3333 4.93706 18.3333 9.99967C18.3278 15.06 14.227 19.1608 9.16667 19.1663ZM1.83333 10.1573C1.87671 14.1918 5.17102 17.4334 9.20566 17.4118C13.2403 17.39 16.4996 14.1132 16.4996 10.0785C16.4996 6.0438 13.2403 2.76697 9.20566 2.74517C5.17102 2.72359 1.87671 5.9652 1.83333 9.99967V10.1573ZM10.1665 13.583C10.1665 14.1353 9.71879 14.583 9.1665 14.583C8.61422 14.583 8.1665 14.1353 8.1665 13.583V11H5.58333C5.03105 11 4.58333 10.5523 4.58333 10C4.58333 9.44771 5.03105 9 5.58333 9H8.1665V6.41634C8.1665 5.86406 8.61422 5.41634 9.1665 5.41634C9.71879 5.41634 10.1665 5.86406 10.1665 6.41634V9H12.75C13.3023 9 13.75 9.44771 13.75 10C13.75 10.5523 13.3023 11 12.75 11H10.1665V13.583Z" fill="black"/>
</svg>
