<svg width="27" height="27" viewBox="0 0 27 27" fill="none" xmlns="http://www.w3.org/2000/svg">
<path d="M25.1813 18.4292C23.3875 18.4292 21.6521 18.1375 20.0333 17.6125C19.5229 17.4375 18.9542 17.5688 18.5604 17.9625L16.2708 20.8354C12.1438 18.8667 8.27917 15.1479 6.22292 10.875L9.06667 8.45417C9.46042 8.04583 9.57708 7.47708 9.41667 6.96667C8.87708 5.34792 8.6 3.6125 8.6 1.81875C8.6 1.03125 7.94375 0.375 7.15625 0.375H2.11042C1.32292 0.375 0.375 0.725 0.375 1.81875C0.375 15.3667 11.6479 26.625 25.1813 26.625C26.2167 26.625 26.625 25.7063 26.625 24.9042V19.8729C26.625 19.0854 25.9688 18.4292 25.1813 18.4292Z" fill="white"/>
</svg>
