<svg width="657" height="720" viewBox="0 0 657 720" fill="none" xmlns="http://www.w3.org/2000/svg">
<path fill-rule="evenodd" clip-rule="evenodd" d="M49.6409 -125.874C-126.775 -93.2589 -295.678 29.7481 -359.574 196.999C-367.328 217.287 -377.764 252.098 -382.769 274.355C-390.801 310.082 -391.883 322.405 -391.996 379.584C-392.134 450.291 -388.338 476.757 -369.286 537.879C-313.28 717.547 -135.48 855.241 51.1902 888.666C105.337 898.359 178.925 898.452 232.302 888.896C384.757 861.595 518.974 765.782 592.31 631.895C640.129 544.586 660.858 456.026 656.413 357.996C645.509 117.286 470.007 -83.5696 233.597 -125.899C180.663 -135.376 100.981 -135.366 49.6409 -125.874ZM459.165 135.686C471.758 145.537 475.805 162.196 470.577 182.675C468.282 191.67 453.345 230.971 437.398 270.005C421.445 309.042 398.147 368.286 385.622 401.661C373.09 435.032 361.85 463.452 360.647 464.812C359.438 466.176 350.98 465.611 341.849 463.556C326.143 460.027 325.367 459.311 327.552 450.287C332.093 431.524 343.21 367.459 356.662 282.468C375.687 162.293 382.242 142.238 406.192 130.872C420.401 124.129 447.54 126.598 459.165 135.686ZM131.892 143.483C144.28 147.602 163.442 157.598 174.479 165.693C196.602 181.923 194.284 182.711 209.609 153.813L218.674 136.722H245.61C260.427 136.722 272.505 137.125 272.454 137.622C272.402 138.118 261.773 176.57 248.829 223.073L225.297 307.625L200.828 308.683L176.358 309.74L176.317 299.688C176.296 294.158 174.191 281.54 171.638 271.645C156.252 211.955 126.852 185.215 71.9633 180.981C-20.1711 173.875 -96.3487 240.876 -122.965 352.423C-128.829 376.997 -129.887 389.773 -128.476 418.985C-126.201 466.104 -119.228 485.396 -95.0295 511.51C-71.46 536.94 -49.2062 545.082 -10.384 542.474C47.0437 538.613 93.1522 497.64 116.773 429.487L124.716 406.568H80.1118C48.5209 406.568 33.2182 406.568 33.2182 406.568C33.2182 404.269 38.1119 389.564 41.293 379.001L47.0712 359.795H163.246C257.112 359.795 281.34 360.004 281.34 360.004C281.34 362.616 277.04 377.673 274.13 387.924L268.847 406.568H236.49H204.136L193.469 443.447C187.605 463.729 180.677 487.612 178.076 496.517C175.475 505.422 168.546 529.305 162.682 549.587L152.016 586.466H126.842H101.668L99.3288 561.568L96.986 536.67L75.1204 554.001C15.8032 601.024 -73.4387 606.479 -137.744 567.004C-157.023 555.174 -185.237 523.127 -196.048 500.784C-230.376 429.833 -217.645 326.323 -165.425 251.817C-125.023 194.171 -56.1901 149.974 13.9688 136.629C41.963 131.304 90.6927 129.782 131.892 143.483ZM342.722 505.818C359.713 512.938 367.044 524.336 367.044 543.639C367.044 581.069 331.53 603.773 296.778 588.568C279.564 581.033 273.082 568.508 275.085 546.662C278.355 511.006 309.798 492.02 342.722 505.818Z" fill="url(#paint0_linear)"/>
<defs>
<linearGradient id="paint0_linear" x1="122.001" y1="305" x2="132" y2="1643" gradientUnits="userSpaceOnUse">
<stop stop-color="#3A86FF"/>
<stop offset="1" stop-color="#6461FF"/>
</linearGradient>
</defs>
</svg>
