<svg width="16" height="18" viewBox="0 0 16 18" fill="none" xmlns="http://www.w3.org/2000/svg">
<path opacity="0.6" d="M8 18C6.89543 18 6 17.1046 6 16H10C10 17.1046 9.10457 18 8 18ZM16 14.7639C16 15.4466 15.4466 16 14.7639 16H1.23607C0.553406 16 0 15.4466 0 14.7639C0 14.2957 0.264521 13.8677 0.683282 13.6584L2 13V8.5C2 5.038 3.421 2.793 6 2.18V2C6 0.895431 6.89543 0 8 0C9.10457 0 10 0.89543 10 2V2.18C12.579 2.792 14 5.036 14 8.5V13L15.3167 13.6584C15.7355 13.8677 16 14.2957 16 14.7639ZM8 3.75C6.77967 3.6712 5.60278 4.21728 4.875 5.2C4.25255 6.18456 3.94714 7.33638 4 8.5V14H12V8.5C12.0528 7.33639 11.7474 6.18458 11.125 5.2C10.3972 4.21728 9.22033 3.6712 8 3.75Z" fill="black"/>
</svg>
