<svg width="28" height="28" viewBox="0 0 28 28" fill="none" xmlns="http://www.w3.org/2000/svg">
<g opacity="0.6">
<path d="M19.5839 19.5847C19.1253 20.0433 18.3819 20.0434 17.9232 19.5849L16.1089 17.7714C13.5933 19.4308 10.2301 18.9175 8.32409 16.5832C6.41812 14.2488 6.58782 10.8509 8.71687 8.71803C10.8493 6.58816 14.2477 6.41773 16.5825 8.32357C18.9174 10.2294 19.431 13.5931 17.7714 16.1089L19.5845 17.9244C20.0426 18.3831 20.0423 19.1263 19.5839 19.5847V19.5847ZM12.8702 9.34803C11.1893 9.34696 9.74177 10.5334 9.41277 12.1818C9.08378 13.8301 9.96499 15.4813 11.5175 16.1256C13.07 16.7699 14.8614 16.2278 15.7962 14.8308C16.731 13.4338 16.5488 11.5711 15.361 10.3817C14.7022 9.71827 13.8052 9.34605 12.8702 9.34803Z" fill="black"/>
</g>
</svg>
