<svg width="22" height="22" viewBox="0 0 22 22" fill="none" xmlns="http://www.w3.org/2000/svg">
<path d="M16.0416 20.1667C15.0498 20.1781 14.1097 19.7249 13.5009 18.9417C12.8921 18.1586 12.6848 17.1357 12.9406 16.1773L7.20223 12.8975C6.21066 13.8059 4.75719 13.9982 3.56351 13.3788C2.36983 12.7595 1.6902 11.4604 1.86207 10.1266C2.03394 8.79282 3.0207 7.70846 4.3324 7.41193C5.6441 7.11539 7.00135 7.66985 7.73023 8.79999L12.9396 5.82174C12.8722 5.56708 12.8365 5.30507 12.8333 5.04166C12.8202 3.50782 13.8855 2.17537 15.3846 1.85058C16.8837 1.52579 18.4049 2.29784 19.0278 3.69958C19.6507 5.10132 19.2041 6.74778 17.9584 7.64271C16.7126 8.53763 15.0097 8.43524 13.8801 7.39749L8.24173 10.6196C8.23615 10.8573 8.20293 11.0935 8.14273 11.3236L13.8801 14.6025C14.9364 13.6332 16.508 13.4835 17.7282 14.2361C18.9484 14.9887 19.5201 16.4603 19.1279 17.8393C18.7358 19.2182 17.4753 20.1688 16.0416 20.1667ZM16.0416 15.5833C15.2823 15.5833 14.6666 16.1989 14.6666 16.9583C14.6666 17.7177 15.2823 18.3333 16.0416 18.3333C16.801 18.3333 17.4166 17.7177 17.4166 16.9583C17.4166 16.1989 16.801 15.5833 16.0416 15.5833ZM5.04165 9.16666C4.28226 9.16666 3.66665 9.78227 3.66665 10.5417C3.66665 11.3011 4.28226 11.9167 5.04165 11.9167C5.80104 11.9167 6.41665 11.3011 6.41665 10.5417C6.41665 9.78227 5.80104 9.16666 5.04165 9.16666ZM16.0416 3.66666C15.2823 3.66666 14.6666 4.28227 14.6666 5.04166C14.6666 5.80105 15.2823 6.41666 16.0416 6.41666C16.801 6.41666 17.4166 5.80105 17.4166 5.04166C17.4166 4.28227 16.801 3.66666 16.0416 3.66666Z" fill="black"/>
</svg>
