<svg width="16" height="17" viewBox="0 0 16 17" fill="none" xmlns="http://www.w3.org/2000/svg">
<path opacity="0.6" d="M15 17.0003H1C0.447715 17.0003 0 16.5526 0 16.0003V8.41435C0 8.14915 0.105451 7.89484 0.293 7.70735L7.293 0.707349C7.48057 0.519572 7.73509 0.414062 8.0005 0.414062C8.26591 0.414062 8.52043 0.519572 8.708 0.707349L15.708 7.70735C15.8957 7.89463 16.0009 8.14917 16 8.41435V16.0003C16 16.5526 15.5523 17.0003 15 17.0003ZM6 11.0003H10V15.0003H14V8.82835L8 2.82835L2 8.82835V15.0003H6V11.0003Z" fill="black"/>
</svg>
