<svg width="35" height="35" viewBox="0 0 35 35" fill="none" xmlns="http://www.w3.org/2000/svg">
<path fill-rule="evenodd" clip-rule="evenodd" d="M14.5833 7.29167C16.1919 7.29167 17.5 8.59979 17.5 10.2083C17.5 11.8169 16.1919 13.125 14.5833 13.125C12.9748 13.125 11.6667 11.8169 11.6667 10.2083C11.6667 8.59979 12.9748 7.29167 14.5833 7.29167ZM14.5833 16.0417C17.8004 16.0417 20.4167 13.4254 20.4167 10.2083C20.4167 6.99125 17.8004 4.375 14.5833 4.375C11.3662 4.375 8.75 6.99125 8.75 10.2083C8.75 13.4254 11.3662 16.0417 14.5833 16.0417ZM14.5833 18.9583C8.95562 18.9583 4.375 23.5375 4.375 29.1667C4.375 29.9717 5.02688 30.625 5.83333 30.625C6.63979 30.625 7.29167 29.9717 7.29167 29.1667C7.29167 25.146 10.5627 21.875 14.5833 21.875C18.604 21.875 21.875 25.146 21.875 29.1667C21.875 29.9717 22.5269 30.625 23.3333 30.625C24.1398 30.625 24.7917 29.9717 24.7917 29.1667C24.7917 23.5375 20.211 18.9583 14.5833 18.9583ZM29.1667 8.75H30.625C31.4271 8.75 32.0833 9.40625 32.0833 10.2083C32.0833 11.0104 31.4271 11.6667 30.625 11.6667H29.1667V13.125C29.1667 13.9271 28.5104 14.5833 27.7083 14.5833C26.9063 14.5833 26.25 13.9271 26.25 13.125V11.6667H24.7917C23.9896 11.6667 23.3333 11.0104 23.3333 10.2083C23.3333 9.40625 23.9896 8.75 24.7917 8.75H26.25V7.29167C26.25 6.48958 26.9063 5.83333 27.7083 5.83333C28.5104 5.83333 29.1667 6.48958 29.1667 7.29167V8.75Z" fill="#757D8A"/>
</svg>
