<svg width="30" height="30" viewBox="0 0 30 30" fill="none" xmlns="http://www.w3.org/2000/svg">
<path fill-rule="evenodd" clip-rule="evenodd" d="M26.2403 8.70363C26.2378 8.61363 26.2115 8.52863 26.1878 8.44238C26.169 8.36988 26.1603 8.29613 26.129 8.22988C26.1003 8.16488 26.0515 8.11238 26.009 8.05238C25.9565 7.97613 25.909 7.89988 25.8415 7.83738C25.8303 7.82613 25.8253 7.81113 25.8128 7.80113C25.7678 7.76238 25.7128 7.74863 25.664 7.71738C25.589 7.66863 25.5153 7.61863 25.4303 7.58613C25.3465 7.55613 25.264 7.54863 25.1778 7.53613C25.1178 7.52738 25.064 7.49988 25.0003 7.49988H18.7503C18.059 7.49988 17.5003 8.05988 17.5003 8.74988C17.5003 9.43988 18.059 9.99988 18.7503 9.99988H22.2828L17.2378 15.8849L11.8928 12.6786C11.364 12.3586 10.684 12.4761 10.289 12.9499L4.039 20.4499C3.59775 20.9799 3.669 21.7686 4.199 22.2099C4.434 22.4049 4.7165 22.4999 4.999 22.4999C5.35775 22.4999 5.71275 22.3474 5.96025 22.0499L11.5253 15.3724L16.8565 18.5724C17.3803 18.8861 18.0528 18.7761 18.449 18.3136L23.7503 12.1286V14.9999C23.7503 15.6899 24.309 16.2499 25.0003 16.2499C25.6915 16.2499 26.2503 15.6899 26.2503 14.9999V8.74988C26.2503 8.73363 26.2415 8.71988 26.2403 8.70363Z" fill="#757D8A"/>
</svg>
